<mxfile host="app.diagrams.net" modified="2023-07-21T07:56:25.703Z" agent="Mozilla/5.0 (Windows NT 10.0; Win64; x64) AppleWebKit/537.36 (KHTML, like Gecko) Chrome/114.0.0.0 Safari/537.36" etag="gAQn03_MXWsTvADcMxQO" version="21.6.5" type="device">
  <diagram name="Page-1" id="YVp3T1bkdsI6YI9k45Qm">
    <mxGraphModel dx="1050" dy="587" grid="1" gridSize="10" guides="1" tooltips="1" connect="1" arrows="1" fold="1" page="1" pageScale="1" pageWidth="850" pageHeight="1100" math="0" shadow="0">
      <root>
        <mxCell id="0" />
        <mxCell id="1" parent="0" />
        <mxCell id="EzahhgVEOUg8jkT6K_ae-3" value="" style="edgeStyle=orthogonalEdgeStyle;rounded=0;orthogonalLoop=1;jettySize=auto;html=1;" edge="1" parent="1" source="EzahhgVEOUg8jkT6K_ae-1" target="EzahhgVEOUg8jkT6K_ae-2">
          <mxGeometry relative="1" as="geometry" />
        </mxCell>
        <mxCell id="EzahhgVEOUg8jkT6K_ae-1" value="Start" style="rounded=1;whiteSpace=wrap;html=1;" vertex="1" parent="1">
          <mxGeometry x="360" y="40" width="120" height="60" as="geometry" />
        </mxCell>
        <mxCell id="EzahhgVEOUg8jkT6K_ae-5" value="" style="edgeStyle=orthogonalEdgeStyle;rounded=0;orthogonalLoop=1;jettySize=auto;html=1;" edge="1" parent="1" source="EzahhgVEOUg8jkT6K_ae-2" target="EzahhgVEOUg8jkT6K_ae-4">
          <mxGeometry relative="1" as="geometry" />
        </mxCell>
        <mxCell id="EzahhgVEOUg8jkT6K_ae-2" value="First=&quot;raz&quot;" style="rounded=0;whiteSpace=wrap;html=1;" vertex="1" parent="1">
          <mxGeometry x="360" y="130" width="120" height="60" as="geometry" />
        </mxCell>
        <mxCell id="EzahhgVEOUg8jkT6K_ae-7" value="" style="edgeStyle=orthogonalEdgeStyle;rounded=0;orthogonalLoop=1;jettySize=auto;html=1;" edge="1" parent="1" source="EzahhgVEOUg8jkT6K_ae-4">
          <mxGeometry relative="1" as="geometry">
            <mxPoint x="420" y="330" as="targetPoint" />
          </mxGeometry>
        </mxCell>
        <mxCell id="EzahhgVEOUg8jkT6K_ae-4" value="Last=&quot;Sela&quot;" style="whiteSpace=wrap;html=1;rounded=0;" vertex="1" parent="1">
          <mxGeometry x="360" y="220" width="120" height="60" as="geometry" />
        </mxCell>
        <mxCell id="EzahhgVEOUg8jkT6K_ae-8" value="End" style="rounded=1;whiteSpace=wrap;html=1;" vertex="1" parent="1">
          <mxGeometry x="360" y="490" width="120" height="60" as="geometry" />
        </mxCell>
        <mxCell id="EzahhgVEOUg8jkT6K_ae-13" value="" style="edgeStyle=orthogonalEdgeStyle;rounded=0;orthogonalLoop=1;jettySize=auto;html=1;" edge="1" parent="1" source="EzahhgVEOUg8jkT6K_ae-10" target="EzahhgVEOUg8jkT6K_ae-12">
          <mxGeometry relative="1" as="geometry" />
        </mxCell>
        <mxCell id="EzahhgVEOUg8jkT6K_ae-10" value="Last=First+Last" style="rounded=0;whiteSpace=wrap;html=1;" vertex="1" parent="1">
          <mxGeometry x="360" y="310" width="120" height="60" as="geometry" />
        </mxCell>
        <mxCell id="EzahhgVEOUg8jkT6K_ae-14" value="" style="edgeStyle=orthogonalEdgeStyle;rounded=0;orthogonalLoop=1;jettySize=auto;html=1;" edge="1" parent="1" source="EzahhgVEOUg8jkT6K_ae-12" target="EzahhgVEOUg8jkT6K_ae-8">
          <mxGeometry relative="1" as="geometry" />
        </mxCell>
        <mxCell id="EzahhgVEOUg8jkT6K_ae-12" value="Last" style="shape=document;whiteSpace=wrap;html=1;boundedLbl=1;" vertex="1" parent="1">
          <mxGeometry x="360" y="400" width="120" height="60" as="geometry" />
        </mxCell>
      </root>
    </mxGraphModel>
  </diagram>
</mxfile>
